<svg xmlns="http://www.w3.org/2000/svg" xmlns:xlink="http://www.w3.org/1999/xlink" width="123" height="32" viewBox="0 0 123 32">
    <defs>
        <path id="a" d="M0 .127v31.087h27.842V.127H0z"/>
    </defs>
    <g fill="none" fill-rule="evenodd">
        <mask id="b" fill="#fff">
            <use xlink:href="#a"/>
        </mask>
        <path fill="#F16E3A" d="M12.043 27.517L6.8 31.07c-.546.37-1.29-.016-1.29-.671v-5.55c-3.477-2.612-5.677-6.8-5.5-11.488C.278 6.228 6.15.414 13.366.137c7.941-.304 14.476 5.968 14.476 13.749 0 7.598-6.233 13.759-13.921 13.759-.637 0-1.263-.046-1.878-.128z" mask="url(#b)"/>
        <g fill="#FAFAFA">
            <path d="M8.053 12c-1.114.012-2.057.945-2.053 2.03.004 1.092.953 1.983 2.097 1.97 1.142-.014 2.057-.913 2.05-2.017-.005-1.08-.972-1.995-2.094-1.983M11.531 13.933c-.044 1.082.856 2.013 1.998 2.065 1.156.052 2.077-.785 2.109-1.92a2.002 2.002 0 0 0-1.963-2.077c-1.121-.035-2.1.847-2.144 1.932zM18.98 12.001c-1.14.041-1.986.936-1.959 2.07.027 1.129.94 1.969 2.092 1.928 1.154-.042 1.978-.912 1.953-2.063-.025-1.119-.948-1.975-2.086-1.935"/>
        </g>
    </g>
</svg>
